<mxfile host="app.diagrams.net" modified="2023-11-01T12:00:00.000Z" agent="Mozilla/5.0" etag="abc123" version="21.6.6">
  <diagram name="Страница поиска" id="search-page">
    <mxGraphModel dx="1422" dy="798" grid="1" gridSize="10" guides="1" tooltips="1" connect="1" arrows="1" fold="1" page="1" pageScale="1" pageWidth="1169" pageHeight="827" math="0" shadow="0">
      <root>
        <mxCell id="0" />
        <mxCell id="1" parent="0" />
        <mxCell id="header" value="" style="rounded=0;whiteSpace=wrap;html=1;fillColor=#f5f5f5;strokeColor=#666666;fontColor=#333333;" vertex="1" parent="1">
          <mxGeometry x="40" y="40" width="1080" height="60" as="geometry" />
        </mxCell>
        <mxCell id="logo" value="GeekHeaven" style="text;html=1;strokeColor=none;fillColor=none;align=center;verticalAlign=middle;whiteSpace=wrap;rounded=0;fontStyle=1;fontSize=24;" vertex="1" parent="1">
          <mxGeometry x="60" y="55" width="160" height="30" as="geometry" />
        </mxCell>
        <mxCell id="search" value="Поиск..." style="rounded=1;whiteSpace=wrap;html=1;align=left;spacingLeft=10;fillColor=#ffffff;strokeColor=#999999;" vertex="1" parent="1">
          <mxGeometry x="400" y="55" width="360" height="30" as="geometry" />
        </mxCell>
        <mxCell id="profile" value="Профиль" style="text;html=1;strokeColor=none;fillColor=none;align=center;verticalAlign=middle;whiteSpace=wrap;rounded=0;" vertex="1" parent="1">
          <mxGeometry x="1000" y="55" width="60" height="30" as="geometry" />
        </mxCell>
        <mxCell id="nav" value="" style="rounded=0;whiteSpace=wrap;html=1;fillColor=#f9f9f9;strokeColor=#cccccc;" vertex="1" parent="1">
          <mxGeometry x="40" y="100" width="200" height="680" as="geometry" />
        </mxCell>
        <mxCell id="nav_dashboard" value="Главная" style="text;html=1;strokeColor=none;fillColor=none;align=left;verticalAlign=middle;whiteSpace=wrap;rounded=0;spacingLeft=10;" vertex="1" parent="1">
          <mxGeometry x="40" y="120" width="200" height="30" as="geometry" />
        </mxCell>
        <mxCell id="nav_library" value="Моя библиотека" style="text;html=1;strokeColor=none;fillColor=none;align=left;verticalAlign=middle;whiteSpace=wrap;rounded=0;spacingLeft=10;" vertex="1" parent="1">
          <mxGeometry x="40" y="150" width="200" height="30" as="geometry" />
        </mxCell>
        <mxCell id="nav_collections" value="Мои коллекции" style="text;html=1;strokeColor=none;fillColor=none;align=left;verticalAlign=middle;whiteSpace=wrap;rounded=0;spacingLeft=10;" vertex="1" parent="1">
          <mxGeometry x="40" y="180" width="200" height="30" as="geometry" />
        </mxCell>
        <mxCell id="nav_categories" value="Категории контента" style="text;html=1;strokeColor=none;fillColor=none;align=left;verticalAlign=middle;whiteSpace=wrap;rounded=0;fontStyle=1;spacingLeft=10;" vertex="1" parent="1">
          <mxGeometry x="40" y="230" width="200" height="30" as="geometry" />
        </mxCell>
        <mxCell id="nav_games" value="Игры" style="text;html=1;strokeColor=none;fillColor=none;align=left;verticalAlign=middle;whiteSpace=wrap;rounded=0;spacingLeft=10;" vertex="1" parent="1">
          <mxGeometry x="40" y="260" width="200" height="30" as="geometry" />
        </mxCell>
        <mxCell id="nav_movies" value="Фильмы и сериалы" style="text;html=1;strokeColor=none;fillColor=none;align=left;verticalAlign=middle;whiteSpace=wrap;rounded=0;spacingLeft=10;" vertex="1" parent="1">
          <mxGeometry x="40" y="290" width="200" height="30" as="geometry" />
        </mxCell>
        <mxCell id="nav_books" value="Книги" style="text;html=1;strokeColor=none;fillColor=none;align=left;verticalAlign=middle;whiteSpace=wrap;rounded=0;spacingLeft=10;" vertex="1" parent="1">
          <mxGeometry x="40" y="320" width="200" height="30" as="geometry" />
        </mxCell>
        <mxCell id="nav_comics" value="Комиксы и манга" style="text;html=1;strokeColor=none;fillColor=none;align=left;verticalAlign=middle;whiteSpace=wrap;rounded=0;spacingLeft=10;" vertex="1" parent="1">
          <mxGeometry x="40" y="350" width="200" height="30" as="geometry" />
        </mxCell>
        <mxCell id="nav_anime" value="Аниме" style="text;html=1;strokeColor=none;fillColor=none;align=left;verticalAlign=middle;whiteSpace=wrap;rounded=0;spacingLeft=10;" vertex="1" parent="1">
          <mxGeometry x="40" y="380" width="200" height="30" as="geometry" />
        </mxCell>
        <mxCell id="content" value="" style="rounded=0;whiteSpace=wrap;html=1;fillColor=#ffffff;strokeColor=#f0f0f0;" vertex="1" parent="1">
          <mxGeometry x="240" y="100" width="880" height="680" as="geometry" />
        </mxCell>
        <mxCell id="search_title" value="Результаты поиска" style="text;html=1;strokeColor=none;fillColor=none;align=left;verticalAlign=middle;whiteSpace=wrap;rounded=0;fontSize=18;fontStyle=1" vertex="1" parent="1">
          <mxGeometry x="260" y="120" width="300" height="30" as="geometry" />
        </mxCell>
        <mxCell id="filters_panel" value="" style="rounded=0;whiteSpace=wrap;html=1;fillColor=#f9f9f9;strokeColor=#cccccc;" vertex="1" parent="1">
          <mxGeometry x="260" y="160" width="840" height="100" as="geometry" />
        </mxCell>
        <mxCell id="filter_type" value="Тип контента" style="text;html=1;strokeColor=none;fillColor=none;align=left;verticalAlign=middle;whiteSpace=wrap;rounded=0;fontStyle=1" vertex="1" parent="1">
          <mxGeometry x="280" y="170" width="120" height="20" as="geometry" />
        </mxCell>
        <mxCell id="filter_type_all" value="Все" style="rounded=1;whiteSpace=wrap;html=1;fillColor=#e6e6e6;strokeColor=#999999;fontSize=11;" vertex="1" parent="1">
          <mxGeometry x="280" y="190" width="60" height="20" as="geometry" />
        </mxCell>
        <mxCell id="filter_type_games" value="Игры" style="rounded=1;whiteSpace=wrap;html=1;fillColor=#ffffff;strokeColor=#999999;fontSize=11;" vertex="1" parent="1">
          <mxGeometry x="350" y="190" width="60" height="20" as="geometry" />
        </mxCell>
        <mxCell id="filter_type_movies" value="Фильмы" style="rounded=1;whiteSpace=wrap;html=1;fillColor=#ffffff;strokeColor=#999999;fontSize=11;" vertex="1" parent="1">
          <mxGeometry x="420" y="190" width="60" height="20" as="geometry" />
        </mxCell>
        <mxCell id="filter_type_series" value="Сериалы" style="rounded=1;whiteSpace=wrap;html=1;fillColor=#ffffff;strokeColor=#999999;fontSize=11;" vertex="1" parent="1">
          <mxGeometry x="490" y="190" width="60" height="20" as="geometry" />
        </mxCell>
        <mxCell id="filter_type_books" value="Книги" style="rounded=1;whiteSpace=wrap;html=1;fillColor=#ffffff;strokeColor=#999999;fontSize=11;" vertex="1" parent="1">
          <mxGeometry x="560" y="190" width="60" height="20" as="geometry" />
        </mxCell>
        <mxCell id="filter_type_comics" value="Комиксы" style="rounded=1;whiteSpace=wrap;html=1;fillColor=#ffffff;strokeColor=#999999;fontSize=11;" vertex="1" parent="1">
          <mxGeometry x="630" y="190" width="60" height="20" as="geometry" />
        </mxCell>
        <mxCell id="filter_type_anime" value="Аниме" style="rounded=1;whiteSpace=wrap;html=1;fillColor=#ffffff;strokeColor=#999999;fontSize=11;" vertex="1" parent="1">
          <mxGeometry x="700" y="190" width="60" height="20" as="geometry" />
        </mxCell>
        <mxCell id="filter_genre" value="Жанр" style="text;html=1;strokeColor=none;fillColor=none;align=left;verticalAlign=middle;whiteSpace=wrap;rounded=0;fontStyle=1" vertex="1" parent="1">
          <mxGeometry x="280" y="220" width="120" height="20" as="geometry" />
        </mxCell>
        <mxCell id="filter_genre_select" value="Выбрать жанры" style="rounded=1;whiteSpace=wrap;html=1;align=left;spacingLeft=10;fillColor=#ffffff;strokeColor=#999999;" vertex="1" parent="1">
          <mxGeometry x="280" y="240" width="200" height="20" as="geometry" />
        </mxCell>
        <mxCell id="filter_year" value="Год выпуска" style="text;html=1;strokeColor=none;fillColor=none;align=left;verticalAlign=middle;whiteSpace=wrap;rounded=0;fontStyle=1" vertex="1" parent="1">
          <mxGeometry x="500" y="220" width="120" height="20" as="geometry" />
        </mxCell>
        <mxCell id="filter_year_from" value="От" style="rounded=1;whiteSpace=wrap;html=1;align=left;spacingLeft=10;fillColor=#ffffff;strokeColor=#999999;" vertex="1" parent="1">
          <mxGeometry x="500" y="240" width="80" height="20" as="geometry" />
        </mxCell>
        <mxCell id="filter_year_to" value="До" style="rounded=1;whiteSpace=wrap;html=1;align=left;spacingLeft=10;fillColor=#ffffff;strokeColor=#999999;" vertex="1" parent="1">
          <mxGeometry x="590" y="240" width="80" height="20" as="geometry" />
        </mxCell>
        <mxCell id="filter_rating" value="Рейтинг" style="text;html=1;strokeColor=none;fillColor=none;align=left;verticalAlign=middle;whiteSpace=wrap;rounded=0;fontStyle=1" vertex="1" parent="1">
          <mxGeometry x="700" y="220" width="120" height="20" as="geometry" />
        </mxCell>
        <mxCell id="filter_rating_from" value="От" style="rounded=1;whiteSpace=wrap;html=1;align=left;spacingLeft=10;fillColor=#ffffff;strokeColor=#999999;" vertex="1" parent="1">
          <mxGeometry x="700" y="240" width="80" height="20" as="geometry" />
        </mxCell>
        <mxCell id="filter_rating_to" value="До" style="rounded=1;whiteSpace=wrap;html=1;align=left;spacingLeft=10;fillColor=#ffffff;strokeColor=#999999;" vertex="1" parent="1">
          <mxGeometry x="790" y="240" width="80" height="20" as="geometry" />
        </mxCell>
        <mxCell id="sort_by" value="Сортировать по:" style="text;html=1;strokeColor=none;fillColor=none;align=left;verticalAlign=middle;whiteSpace=wrap;rounded=0;fontStyle=0" vertex="1" parent="1">
          <mxGeometry x="880" y="270" width="100" height="20" as="geometry" />
        </mxCell>
        <mxCell id="sort_select" value="Релевантности" style="rounded=1;whiteSpace=wrap;html=1;align=left;spacingLeft=10;fillColor=#ffffff;strokeColor=#999999;" vertex="1" parent="1">
          <mxGeometry x="980" y="270" width="120" height="20" as="geometry" />
        </mxCell>
        <mxCell id="search_results" value="" style="rounded=0;whiteSpace=wrap;html=1;fillColor=#ffffff;strokeColor=#f0f0f0;" vertex="1" parent="1">
          <mxGeometry x="260" y="300" width="840" height="460" as="geometry" />
        </mxCell>
        <mxCell id="result_item_1" value="" style="rounded=1;whiteSpace=wrap;html=1;fillColor=#f9f9f9;strokeColor=#cccccc;" vertex="1" parent="1">
          <mxGeometry x="280" y="320" width="800" height="100" as="geometry" />
        </mxCell>
        <mxCell id="result_item_1_image" value="" style="rounded=0;whiteSpace=wrap;html=1;fillColor=#e6e6e6;strokeColor=#999999;" vertex="1" parent="1">
          <mxGeometry x="300" y="330" width="80" height="80" as="geometry" />
        </mxCell>
        <mxCell id="result_item_1_title" value="Название медиа-объекта 1" style="text;html=1;strokeColor=none;fillColor=none;align=left;verticalAlign=middle;whiteSpace=wrap;rounded=0;fontStyle=1;fontSize=14;" vertex="1" parent="1">
          <mxGeometry x="400" y="330" width="300" height="20" as="geometry" />
        </mxCell>
        <mxCell id="result_item_1_type" value="Тип: Фильм" style="text;html=1;strokeColor=none;fillColor=none;align=left;verticalAlign=middle;whiteSpace=wrap;rounded=0;fontSize=11;" vertex="1" parent="1">
          <mxGeometry x="400" y="350" width="100" height="20" as="geometry" />
        </mxCell>
        <mxCell id="result_item_1_year" value="Год: 2023" style="text;html=1;strokeColor=none;fillColor=none;align=left;verticalAlign=middle;whiteSpace=wrap;rounded=0;fontSize=11;" vertex="1" parent="1">
          <mxGeometry x="500" y="350" width="100" height="20" as="geometry" />
        </mxCell>
        <mxCell id="result_item_1_rating" value="Рейтинг: 8.5/10" style="text;html=1;strokeColor=none;fillColor=none;align=left;verticalAlign=middle;whiteSpace=wrap;rounded=0;fontSize=11;" vertex="1" parent="1">
          <mxGeometry x="600" y="350" width="100" height="20" as="geometry" />
        </mxCell>
        <mxCell id="result_item_1_desc" value="Краткое описание медиа-объекта..." style="text;html=1;strokeColor=none;fillColor=none;align=left;verticalAlign=top;whiteSpace=wrap;rounded=0;fontSize=11;" vertex="1" parent="1">
          <mxGeometry x="400" y="370" width="660" height="40" as="geometry" />
        </mxCell>
        <mxCell id="result_item_2" value="" style="rounded=1;whiteSpace=wrap;html=1;fillColor=#f9f9f9;strokeColor=#cccccc;" vertex="1" parent="1">
          <mxGeometry x="280" y="440" width="800" height="100" as="geometry" />
        </mxCell>
        <mxCell id="result_item_2_image" value="" style="rounded=0;whiteSpace=wrap;html=1;fillColor=#e6e6e6;strokeColor=#999999;" vertex="1" parent="1">
          <mxGeometry x="300" y="450" width="80" height="80" as="geometry" />
        </mxCell>
        <mxCell id="result_item_2_title" value="Название медиа-объекта 2" style="text;html=1;strokeColor=none;fillColor=none;align=left;verticalAlign=middle;whiteSpace=wrap;rounded=0;fontStyle=1;fontSize=14;" vertex="1" parent="1">
          <mxGeometry x="400" y="450" width="300" height="20" as="geometry" />
        </mxCell>
        <mxCell id="result_item_2_type" value="Тип: Игра" style="text;html=1;strokeColor=none;fillColor=none;align=left;verticalAlign=middle;whiteSpace=wrap;rounded=0;fontSize=11;" vertex="1" parent="1">
          <mxGeometry x="400" y="470" width="100" height="20" as="geometry" />
        </mxCell>
        <mxCell id="result_item_2_year" value="Год: 2022" style="text;html=1;strokeColor=none;fillColor=none;align=left;verticalAlign=middle;whiteSpace=wrap;rounded=0;fontSize=11;" vertex="1" parent="1">
          <mxGeometry x="500" y="470" width="100" height="20" as="geometry" />
        </mxCell>
        <mxCell id="result_item_2_rating" value="Рейтинг: 9.2/10" style="text;html=1;strokeColor=none;fillColor=none;align=left;verticalAlign=middle;whiteSpace=wrap;rounded=0;fontSize=11;" vertex="1" parent="1">
          <mxGeometry x="600" y="470" width="100" height="20" as="geometry" />
        </mxCell>
        <mxCell id="result_item_2_desc" value="Краткое описание медиа-объекта..." style="text;html=1;strokeColor=none;fillColor=none;align=left;verticalAlign=top;whiteSpace=wrap;rounded=0;fontSize=11;" vertex="1" parent="1">
          <mxGeometry x="400" y="490" width="660" height="40" as="geometry" />
        </mxCell>
        <mxCell id="result_item_3" value="" style="rounded=1;whiteSpace=wrap;html=1;fillColor=#f9f9f9;strokeColor=#cccccc;" vertex="1" parent="1">
          <mxGeometry x="280" y="560" width="800" height="100" as="geometry" />
        </mxCell>
        <mxCell id="result_item_3_image" value="" style="rounded=0;whiteSpace=wrap;html=1;fillColor=#e6e6e6;strokeColor=#999999;" vertex="1" parent="1">
          <mxGeometry x="300" y="570" width="80" height="80" as="geometry" />
        </mxCell>
        <mxCell id="result_item_3_title" value="Название медиа-объекта 3" style="text;html=1;strokeColor=none;fillColor=none;align=left;verticalAlign=middle;whiteSpace=wrap;rounded=0;fontStyle=1;fontSize=14;" vertex="1" parent="1">
          <mxGeometry x="400" y="570" width="300" height="20" as="geometry" />
        </mxCell>
        <mxCell id="result_item_3_type" value="Тип: Книга" style="text;html=1;strokeColor=none;fillColor=none;align=left;verticalAlign=middle;whiteSpace=wrap;rounded=0;fontSize=11;" vertex="1" parent="1">
          <mxGeometry x="400" y="590" width="100" height="20" as="geometry" />
        </mxCell>
        <mxCell id="result_item_3_year" value="Год: 2021" style="text;html=1;strokeColor=none;fillColor=none;align=left;verticalAlign=middle;whiteSpace=wrap;rounded=0;fontSize=11;" vertex="1" parent="1">
          <mxGeometry x="500" y="590" width="100" height="20" as="geometry" />
        </mxCell>
        <mxCell id="result_item_3_rating" value="Рейтинг: 7.8/10" style="text;html=1;strokeColor=none;fillColor=none;align=left;verticalAlign=middle;whiteSpace=wrap;rounded=0;fontSize=11;" vertex="1" parent="1">
          <mxGeometry x="600" y="590" width="100" height="20" as="geometry" />
        </mxCell>
        <mxCell id="result_item_3_desc" value="Краткое описание медиа-объекта..." style="text;html=1;strokeColor=none;fillColor=none;align=left;verticalAlign=top;whiteSpace=wrap;rounded=0;fontSize=11;" vertex="1" parent="1">
          <mxGeometry x="400" y="610" width="660" height="40" as="geometry" />
        </mxCell>
        <mxCell id="pagination" value="" style="rounded=0;whiteSpace=wrap;html=1;fillColor=#ffffff;strokeColor=#f0f0f0;" vertex="1" parent="1">
          <mxGeometry x="260" y="760" width="840" height="20" as="geometry" />
        </mxCell>
        <mxCell id="page_prev" value="&lt;" style="rounded=1;whiteSpace=wrap;html=1;fillColor=#f5f5f5;strokeColor=#666666;" vertex="1" parent="1">
          <mxGeometry x="580" y="760" width="20" height="20" as="geometry" />
        </mxCell>
        <mxCell id="page_1" value="1" style="rounded=1;whiteSpace=wrap;html=1;fillColor=#e6e6e6;strokeColor=#666666;" vertex="1" parent="1">
          <mxGeometry x="610" y="760" width="20" height="20" as="geometry" />
        </mxCell>
        <mxCell id="page_2" value="2" style="rounded=1;whiteSpace=wrap;html=1;fillColor=#ffffff;strokeColor=#666666;" vertex="1" parent="1">
          <mxGeometry x="640" y="760" width="20" height="20" as="geometry" />
        </mxCell>
        <mxCell id="page_3" value="3" style="rounded=1;whiteSpace=wrap;html=1;fillColor=#ffffff;strokeColor=#666666;" vertex="1" parent="1">
          <mxGeometry x="670" y="760" width="20" height="20" as="geometry" />
        </mxCell>
        <mxCell id="page_next" value="&gt;" style="rounded=1;whiteSpace=wrap;html=1;fillColor=#f5f5f5;strokeColor=#666666;" vertex="1" parent="1">
          <mxGeometry x="700" y="760" width="20" height="20" as="geometry" />
        </mxCell>
      </root>
    </mxGraphModel>
  </diagram>
</mxfile>